<svg xmlns="http://www.w3.org/2000/svg" xmlns:xlink="http://www.w3.org/1999/xlink" width="455.054" height="265.143" viewBox="0 0 455.054 265.143">
  <defs>
    <radialGradient id="radial-gradient" cx="0.5" cy="0.5" r="0.5" gradientUnits="objectBoundingBox">
      <stop offset="0" stop-color="#3fa9f5" stop-opacity="0.6"/>
      <stop offset="0.302" stop-color="#498cf7" stop-opacity="0.624"/>
      <stop offset="0.888" stop-color="#6542fd" stop-opacity="0.686"/>
      <stop offset="1" stop-color="#6b33ff" stop-opacity="0.698"/>
    </radialGradient>
    <radialGradient id="radial-gradient-2" cx="0.177" cy="0.888" r="0.899" gradientTransform="matrix(0.276, -0.961, 1.82, 0.522, -1.488, 0.594)" gradientUnits="objectBoundingBox">
      <stop offset="0" stop-color="#3fa9f5" stop-opacity="0.6"/>
      <stop offset="0.302" stop-color="#498cf7" stop-opacity="0.624"/>
      <stop offset="0.799" stop-color="#6542fd" stop-opacity="0.686"/>
      <stop offset="0.894" stop-color="#6b33ff" stop-opacity="0.698"/>
      <stop offset="1" stop-color="#6b33ff" stop-opacity="0.698"/>
    </radialGradient>
    <radialGradient id="radial-gradient-3" cx="0.404" cy="0.3" r="0.629" gradientTransform="matrix(0.384, 0.923, -0.785, 0.326, 0.484, -0.171)" xlink:href="#radial-gradient"/>
    <linearGradient id="linear-gradient" x1="1180.748" y1="-5.281" x2="1176.93" y2="-5.897" gradientUnits="objectBoundingBox">
      <stop offset="0" stop-color="#3fa9f5" stop-opacity="0.6"/>
      <stop offset="0.302" stop-color="#498cf7" stop-opacity="0.624"/>
      <stop offset="0.888" stop-color="#6542fd" stop-opacity="0.686"/>
      <stop offset="1" stop-color="#6b33ff" stop-opacity="0.698"/>
    </linearGradient>
    <radialGradient id="radial-gradient-4" cx="-0.025" cy="0.546" r="1.043" gradientTransform="matrix(0.596, -0.803, 0.482, 0.358, -0.171, 0.28)" gradientUnits="objectBoundingBox">
      <stop offset="0" stop-color="#3fa9f5" stop-opacity="0.6"/>
      <stop offset="0.302" stop-color="#498cf7" stop-opacity="0.624"/>
      <stop offset="0.829" stop-color="#6542fd" stop-opacity="0.686"/>
      <stop offset="0.921" stop-color="#6b33ff" stop-opacity="0.698"/>
      <stop offset="1" stop-color="#6b33ff" stop-opacity="0.698"/>
    </radialGradient>
    <radialGradient id="radial-gradient-5" cx="0.844" cy="0.107" r="0.563" gradientTransform="matrix(-0.066, 0.998, -11.738, -0.781, 2.152, -0.652)" xlink:href="#radial-gradient"/>
    <linearGradient id="linear-gradient-2" x1="281.58" y1="-4.324" x2="280.562" y2="-5.23" xlink:href="#linear-gradient"/>
    <radialGradient id="radial-gradient-6" cx="0.325" cy="0.602" r="1.356" gradientTransform="matrix(0.462, -0.887, 0.512, 0.267, -0.133, 0.729)" gradientUnits="objectBoundingBox">
      <stop offset="0" stop-color="#3fa9f5" stop-opacity="0.6"/>
      <stop offset="0.302" stop-color="#498cf7" stop-opacity="0.624"/>
      <stop offset="0.683" stop-color="#6b33ff" stop-opacity="0.698"/>
      <stop offset="0.888" stop-color="#6542fd" stop-opacity="0.686"/>
      <stop offset="1" stop-color="#6b33ff" stop-opacity="0.698"/>
    </radialGradient>
  </defs>
  <g id="그룹_102" data-name="그룹 102" transform="translate(-162 -2719.563)">
    <path id="패스_236" data-name="패스 236" d="M-2729.3,2912.5a1.493,1.493,0,0,1-.481-.079,1.5,1.5,0,0,1-.94-1.9,108.937,108.937,0,0,0,2.2-62.461,109.648,109.648,0,0,0-11.054-27.092,1.5,1.5,0,0,1,.552-2.049,1.5,1.5,0,0,1,2.048.553,112.66,112.66,0,0,1,11.358,27.834,111.924,111.924,0,0,1-2.266,64.175A1.5,1.5,0,0,1-2729.3,2912.5Z" transform="translate(3220.322 66.204)" fill="url(#radial-gradient)"/>
    <path id="패스_237" data-name="패스 237" d="M-2993.747,2912.5a1.5,1.5,0,0,1-1.467-1.194,164.638,164.638,0,0,1,119.969-192.979c2.879-.748,5.807-1.427,8.705-2.016a1.5,1.5,0,0,1,1.769,1.169,1.5,1.5,0,0,1-1.17,1.77c-2.846.58-5.722,1.246-8.549,1.981A161.637,161.637,0,0,0-2992.276,2910.7a1.5,1.5,0,0,1-1.164,1.775A1.539,1.539,0,0,1-2993.747,2912.5Z" transform="translate(3220.322 66.204)" fill="url(#radial-gradient-2)"/>
    <path id="패스_238" data-name="패스 238" d="M-2676.99,2833.571a1.5,1.5,0,0,1-1.439-1.08c-17.261-59.2-67.759-104.063-128.648-114.284a1.5,1.5,0,0,1-1.231-1.728,1.5,1.5,0,0,1,1.728-1.231,165.214,165.214,0,0,1,81.423,38.612,164.172,164.172,0,0,1,49.608,77.791,1.5,1.5,0,0,1-1.02,1.861A1.531,1.531,0,0,1-2676.99,2833.571Z" transform="translate(3220.322 66.204)" fill="url(#radial-gradient-3)"/>
    <path id="패스_239" data-name="패스 239" d="M-2613.234,2912.5a1.441,1.441,0,0,1-.225-.017,1.5,1.5,0,0,1-1.26-1.707,220.188,220.188,0,0,0,1.295-55.3,1.5,1.5,0,0,1,1.339-1.645,1.511,1.511,0,0,1,1.646,1.339,223.257,223.257,0,0,1-1.313,56.05A1.5,1.5,0,0,1-2613.234,2912.5Z" transform="translate(3220.322 66.204)" fill="url(#linear-gradient)"/>
    <path id="패스_240" data-name="패스 240" d="M-2948.754,2688.272a1.5,1.5,0,0,1-1.288-.727,1.5,1.5,0,0,1,.513-2.059,224.759,224.759,0,0,1,59.29-24.859,224.609,224.609,0,0,1,66-7.07,1.5,1.5,0,0,1,1.436,1.562,1.515,1.515,0,0,1-1.562,1.436,221.373,221.373,0,0,0-65.114,6.976,221.686,221.686,0,0,0-58.5,24.528A1.506,1.506,0,0,1-2948.754,2688.272Z" transform="translate(3220.322 66.204)" fill="url(#radial-gradient-4)"/>
    <path id="패스_241" data-name="패스 241" d="M-3054.3,2912.5a1.5,1.5,0,0,1-1.481-1.275,222.062,222.062,0,0,1,4.777-90.092,224.233,224.233,0,0,1,38.571-79.179,1.5,1.5,0,0,1,2.1-.287,1.5,1.5,0,0,1,.287,2.1,222.541,222.541,0,0,0-42.772,167.006,1.5,1.5,0,0,1-1.258,1.708A1.585,1.585,0,0,1-3054.3,2912.5Z" transform="translate(3220.322 66.204)" fill="url(#radial-gradient-5)"/>
    <path id="패스_242" data-name="패스 242" d="M-2763.816,2871.472a1.5,1.5,0,0,1-1.492-1.363,68.866,68.866,0,0,0-1.921-10.969,68,68,0,0,0-18.692-31.969,1.5,1.5,0,0,1-.043-2.121,1.5,1.5,0,0,1,2.121-.043,71,71,0,0,1,19.517,33.379,71.98,71.98,0,0,1,2.006,11.448,1.5,1.5,0,0,1-1.356,1.632C-2763.723,2871.47-2763.77,2871.472-2763.816,2871.472Z" transform="translate(3220.322 66.204)" fill="url(#linear-gradient-2)"/>
    <path id="패스_243" data-name="패스 243" d="M-2897.482,2850.957a1.5,1.5,0,0,1-.579-.116,1.5,1.5,0,0,1-.8-1.962,70.665,70.665,0,0,1,47.776-41.467,70.766,70.766,0,0,1,26.975-1.724,1.5,1.5,0,0,1,1.3,1.679,1.5,1.5,0,0,1-1.68,1.3,67.774,67.774,0,0,0-25.836,1.653,67.685,67.685,0,0,0-45.763,39.72A1.5,1.5,0,0,1-2897.482,2850.957Z" transform="translate(3220.322 66.204)" fill="url(#radial-gradient-6)"/>
  </g>
</svg>
